<svg width="27" height="27" viewBox="0 0 27 27" fill="none" xmlns="http://www.w3.org/2000/svg">
<path fill-rule="evenodd" clip-rule="evenodd" d="M0 13.5C0 20.9558 6.04416 27 13.5 27C20.9558 27 27 20.9558 27 13.5C27 6.04416 20.9558 0 13.5 0C6.04416 0 0 6.04416 0 13.5ZM11.025 19.6875L11.2547 16.2463L11.2545 16.2461L17.5145 10.5969C17.7893 10.3531 17.4545 10.2342 17.0898 10.4554L9.36409 15.3294L6.02701 14.2879C5.30634 14.0672 5.30117 13.572 6.18881 13.216L19.1927 8.20173C19.7866 7.93209 20.3598 8.34438 20.1331 9.25341L17.9186 19.6892C17.7639 20.4308 17.3158 20.6082 16.695 20.2656L13.3215 17.7733L11.7 19.35C11.6949 19.355 11.6898 19.3599 11.6847 19.3649C11.5034 19.5414 11.3533 19.6875 11.025 19.6875Z" fill="#5E5E5E"/>
</svg>
