<svg width="27" height="27" viewBox="0 0 27 27" fill="none" xmlns="http://www.w3.org/2000/svg">
<path fill-rule="evenodd" clip-rule="evenodd" d="M13.5 0C6.04416 0 0 6.04416 0 13.5C0 20.9558 6.04416 27 13.5 27C20.9558 27 27 20.9558 27 13.5C27 6.04416 20.9558 0 13.5 0ZM14.5992 17.7616C14.4661 17.902 14.2062 17.9303 14.2062 17.9303H13.3455C13.3455 17.9303 11.4467 18.0423 9.77401 16.3333C7.94986 14.4687 6.33912 10.7694 6.33912 10.7694C6.33912 10.7694 6.24615 10.5267 6.34686 10.4099C6.46026 10.2778 6.76945 10.2695 6.76945 10.2695L8.82672 10.2564C8.82672 10.2564 9.0204 10.2875 9.15915 10.3877C9.27395 10.4707 9.33804 10.6249 9.33804 10.6249C9.33804 10.6249 9.67048 11.4503 10.1107 12.197C10.9706 13.655 11.3707 13.9737 11.6622 13.8175C12.0876 13.59 11.9602 11.7566 11.9602 11.7566C11.9602 11.7566 11.9679 11.0915 11.7461 10.7949C11.5742 10.5654 11.2502 10.4984 11.1073 10.4797C10.991 10.4645 11.1812 10.2004 11.4277 10.0822C11.7982 9.9045 12.4518 9.89413 13.2244 9.90173C13.8266 9.90795 13.9998 9.94459 14.2351 10.0006C14.781 10.1299 14.764 10.5444 14.7272 11.4388C14.7162 11.7063 14.7034 12.0168 14.7034 12.3754C14.7034 12.4559 14.701 12.5418 14.6986 12.6302C14.6858 13.0884 14.6712 13.6132 14.9788 13.8085C15.1366 13.9081 15.5218 13.823 16.486 12.2163C16.9431 11.4545 17.2854 10.5592 17.2854 10.5592C17.2854 10.5592 17.3608 10.3995 17.477 10.3311C17.596 10.2612 17.7566 10.2827 17.7566 10.2827L19.9216 10.2695C19.9216 10.2695 20.5724 10.1928 20.6773 10.4818C20.7879 10.7839 20.4344 11.4904 19.5498 12.6477C18.7106 13.7459 18.3023 14.1502 18.3398 14.5077C18.3671 14.769 18.6326 15.0053 19.142 15.4691C20.2053 16.4382 20.4903 16.9481 20.5588 17.0706C20.5645 17.0807 20.5687 17.0882 20.5717 17.0931C21.0485 17.8695 20.0428 17.9303 20.0428 17.9303L18.1193 17.9566C18.1193 17.9566 17.7066 18.0368 17.1629 17.6704C16.878 17.4786 16.5997 17.1654 16.3346 16.867C15.9298 16.4114 15.5558 15.9905 15.2366 16.0899C14.7006 16.2572 14.7168 17.3904 14.7168 17.3904C14.7168 17.3904 14.721 17.633 14.5992 17.7616Z" fill="#5E5E5E"/>
</svg>
