<svg width="27" height="27" viewBox="0 0 27 27" fill="none" xmlns="http://www.w3.org/2000/svg">
<path fill-rule="evenodd" clip-rule="evenodd" d="M0 13.5C0 20.9558 6.04416 27 13.5 27C20.9558 27 27 20.9558 27 13.5C27 6.04416 20.9558 0 13.5 0C6.04416 0 0 6.04416 0 13.5ZM21.9725 12.9833C21.9707 17.4084 18.371 21.009 13.945 21.0108H13.9417C12.5981 21.0103 11.278 20.6732 10.1055 20.0337L5.85 21.15L6.98885 16.9902C6.28635 15.7728 5.9167 14.3918 5.9173 12.977C5.91906 8.55095 9.52021 4.95 13.9449 4.95C16.0924 4.95093 18.1079 5.78692 19.6235 7.30429C21.1391 8.82159 21.9733 10.8384 21.9725 12.9833Z" fill="#5E5E5E"/>
<path fill-rule="evenodd" clip-rule="evenodd" d="M7.7772 19.2427L10.3025 18.5802L10.5461 18.7248C11.5705 19.3327 12.7448 19.6544 13.9421 19.6549H13.9448C17.6223 19.6549 20.6154 16.6617 20.6168 12.9827C20.6175 11.1998 19.9242 9.52353 18.6645 8.26235C17.4048 7.00117 15.7295 6.30628 13.9474 6.30566C10.2671 6.30566 7.27392 9.29854 7.27246 12.9773C7.27194 14.238 7.62469 15.4658 8.29259 16.5281L8.45123 16.7805L7.7772 19.2427ZM17.7143 14.7114C17.8542 14.7791 17.9486 14.8247 17.989 14.8921C18.0391 14.9757 18.0391 15.3773 17.8721 15.8459C17.7048 16.3144 16.9035 16.742 16.5181 16.7996C16.1726 16.8513 15.7353 16.8728 15.2548 16.7201C14.9634 16.6277 14.5898 16.5043 14.1113 16.2976C12.2309 15.4857 10.9601 13.6631 10.72 13.3187C10.7031 13.2946 10.6914 13.2777 10.6848 13.2689L10.6832 13.2668C10.577 13.1251 9.86578 12.1761 9.86578 11.194C9.86578 10.2701 10.3196 9.78578 10.5285 9.56286C10.5428 9.54759 10.556 9.53355 10.5678 9.52067C10.7516 9.31986 10.969 9.26966 11.1027 9.26966C11.2364 9.26966 11.3702 9.27089 11.4871 9.27676C11.5015 9.27748 11.5165 9.2774 11.532 9.27731C11.6489 9.27662 11.7946 9.27577 11.9384 9.62108C11.9937 9.75397 12.0746 9.95099 12.16 10.1588C12.3326 10.579 12.5233 11.0432 12.5568 11.1104C12.607 11.2108 12.6404 11.3279 12.5735 11.4618C12.5635 11.4819 12.5542 11.5009 12.5454 11.519C12.4951 11.6215 12.4582 11.6969 12.373 11.7964C12.3395 11.8355 12.3048 11.8777 12.2702 11.9199C12.2012 12.004 12.1322 12.088 12.0721 12.1478C11.9717 12.2479 11.8672 12.3564 11.9842 12.5572C12.1012 12.758 12.5037 13.4148 13.1 13.9467C13.741 14.5184 14.2981 14.7601 14.5805 14.8826C14.6356 14.9065 14.6803 14.9258 14.713 14.9423C14.9135 15.0427 15.0306 15.0259 15.1476 14.8921C15.2646 14.7582 15.649 14.3063 15.7827 14.1056C15.9164 13.9048 16.0501 13.9383 16.234 14.0052C16.4179 14.0722 17.404 14.5574 17.6046 14.6578C17.6437 14.6774 17.6803 14.6951 17.7143 14.7114Z" fill="#5E5E5E"/>
</svg>
